<svg width="734" height="759" viewBox="0 0 734 759" fill="none" xmlns="http://www.w3.org/2000/svg">
<path d="M167.133 233.538C170.942 203.413 210.092 162.471 241.163 167.014L241.113 166.965C271.35 172.711 295.286 224.754 308.783 248.155C318.347 265.134 312.137 282.337 303.217 289.596C291.183 299.294 272.366 312.677 276.314 326.113C283.333 350 366.667 433.333 407.653 457.023C423.167 465.99 434.417 442.34 444.023 430.223C451.003 420.903 468.22 415.333 485.16 424.533C510.46 439.267 534.293 456.39 556.333 475.667C567.34 484.867 569.923 498.463 562.297 512.833C548.863 538.143 510.01 571.52 481.807 564.737C432.547 552.893 233.333 475.667 169.344 251.934C165.746 241.349 166.652 237.348 167.133 233.538Z" fill="white"/>
<path fill-rule="evenodd" clip-rule="evenodd" d="M366.667 733.333C325.88 733.333 303.313 728.957 266.667 716.667L196.481 751.76C152.154 773.923 100 741.69 100 692.13V616.667C28.2183 549.733 0 472.557 0 366.667C0 164.162 164.162 0 366.667 0C569.17 0 733.333 164.162 733.333 366.667C733.333 569.17 569.17 733.333 366.667 733.333ZM166.667 587.677L145.465 567.907C89.6957 515.907 66.6667 457.77 66.6667 366.667C66.6667 200.981 200.981 66.6667 366.667 66.6667C532.353 66.6667 666.667 200.981 666.667 366.667C666.667 532.353 532.353 666.667 366.667 666.667C333.81 666.667 318.4 663.7 287.865 653.46L261.616 644.657L166.667 692.13V587.677Z" fill="white"/>
</svg>
